HIERARCHY
ROOT Hips
{
	OFFSET 0.000000 8.830580 0.000000
	CHANNELS 6 Xposition Yposition Zposition Zrotation Yrotation Xrotation 
	JOINT Spine
	{
		OFFSET 0.000000 0.010000 0.000000
		CHANNELS 3 Zrotation Yrotation Xrotation
		JOINT Spine1
		{
			OFFSET 0.000000 2.459130 0.000000
			CHANNELS 3 Zrotation Yrotation Xrotation
			JOINT Neck
			{
				OFFSET 0.000000 2.484630 0.000000
				CHANNELS 3 Zrotation Yrotation Xrotation
				JOINT Head_virtual
				{
					OFFSET 0.000000 0.000000 0.000000
					CHANNELS 3 Zrotation Yrotation Xrotation
					JOINT Head
					{
						OFFSET 0.000000 0.927525 0.000000
						CHANNELS 3 Zrotation Yrotation Xrotation
						End Site
						{
							OFFSET 0.000000 0.000000 0.000000
						}
					}
				}
				JOINT LeftUpArm_virtual
				{
					OFFSET 0.000000 0.000000 0.000000
					CHANNELS 3 Zrotation Yrotation Xrotation
					JOINT LeftUpArm
					{
						OFFSET 1.248820 0.000000 0.000000
						CHANNELS 3 Zrotation Yrotation Xrotation
						JOINT LeftForeArm
						{
							OFFSET 2.597580 0.000000 0.000000
							CHANNELS 3 Zrotation Yrotation Xrotation
							JOINT LeftHand
							{
								OFFSET 2.455420 0.000000 0.000000
								CHANNELS 3 Zrotation Yrotation Xrotation
								End Site
								{
									OFFSET 0.000000 0.000000 0.000000
								}
							}
						}
					}
				}
				JOINT RightUpArm_virtual
				{
					OFFSET -0.000000 -0.000000 -0.000000
					CHANNELS 3 Zrotation Yrotation Xrotation
					JOINT RightUpArm
					{
						OFFSET -1.248820 -0.000000 -0.000000
						CHANNELS 3 Zrotation Yrotation Xrotation
						JOINT RightForeArm
						{
							OFFSET -2.597580 -0.000000 -0.000000
							CHANNELS 3 Zrotation Yrotation Xrotation
							JOINT RightHand
							{
								OFFSET -2.455420 -0.000000 -0.000000
								CHANNELS 3 Zrotation Yrotation Xrotation
								End Site
								{
									OFFSET 0.000000 0.000000 0.000000
								}
							}
						}
					}
				}
			}
		}
	}
	JOINT LeftUpLeg
	{
		OFFSET 1.271939 0.000000 0.000000
		CHANNELS 3 Zrotation Yrotation Xrotation
		JOINT LeftLowLeg
		{
			OFFSET 0.000000 -4.342910 0.000000
			CHANNELS 3 Zrotation Yrotation Xrotation
			JOINT LeftFoot
			{
				OFFSET 0.000000 -4.487670 0.000000
				CHANNELS 3 Zrotation Yrotation Xrotation
				JOINT LeftToeBase
				{
					OFFSET 0.000000 0.000000 1.515070
					CHANNELS 3 Zrotation Yrotation Xrotation
					End Site
					{
						OFFSET 0.000000 0.000000 0.000000
					}
				}
			}
		}
	}
	JOINT RightUpLeg
	{
		OFFSET -1.271939 0.000000 0.000000
		CHANNELS 3 Zrotation Yrotation Xrotation
		JOINT RightLowLeg
		{
			OFFSET 0.000000 -4.342910 0.000000
			CHANNELS 3 Zrotation Yrotation Xrotation
			JOINT RightFoot
			{
				OFFSET 0.000000 -4.487670 0.000000
				CHANNELS 3 Zrotation Yrotation Xrotation
				JOINT RightToeBase
				{
					OFFSET 0.000000 0.000000 1.515070
					CHANNELS 3 Zrotation Yrotation Xrotation
					End Site
					{
						OFFSET 0.000000 0.000000 0.000000
					}
				}
			}
		}
	}
}
MOTION
Frames: 7
Frame Time: 0.041667
-15.773011 9.161273 46.527686 -179.532984 -3.861682 170.918814 5.016169 -1.590264 -12.413257 -7.489075 -5.329157 33.023630 0.000000 0.000000 0.000000 4.440295 3.665252 18.560259 1.918167 6.744414 -69.411041 -24.702700 3.684190 -14.193000 -26.017799 4.478640 30.002701 0.000000 -47.711102 0.000000 23.862200 4.970580 21.407499 27.345699 -0.781216 -6.476710 18.361500 11.161400 -11.023900 -180.000000 71.713997 -180.000000 -29.548401 7.496480 32.489799 12.013714 1.620224 5.052035 0.000000 0.000000 27.821899 -15.387416 11.091974 10.654347 0.000000 0.000000 -16.567490 8.407600 7.104530 0.348800 0.000000 0.000000 26.216499 14.638170 -23.062840 0.747985 0.000000 0.000000 -12.206680 
-15.753188 9.179302 46.539938 -179.493070 -4.108540 171.259214 5.324769 -1.334664 -12.496746 -7.869528 -5.298636 33.333380 0.000000 0.000000 0.000000 4.682102 3.709520 18.167118 1.602758 7.310581 -69.208276 -24.561001 3.636440 -14.255700 -26.538700 4.556980 30.555201 0.000000 -46.348701 0.000000 23.024300 5.483380 19.882000 27.846600 -0.539821 -6.227900 19.655300 12.118200 -12.898500 -180.000000 72.212997 -180.000000 -34.742100 10.115400 31.449900 11.951729 2.059284 4.167837 0.000000 0.000000 28.314699 -14.662398 11.903832 10.810249 0.000000 0.000000 -15.963078 8.510229 7.198770 0.525625 0.000000 0.000000 25.028000 14.436106 -23.421890 1.241838 0.000000 0.000000 -12.006680 
-15.735404 9.199195 46.550415 -179.484949 -4.299966 171.531015 5.609584 -1.063837 -12.535496 -8.229994 -5.241854 33.638184 0.000000 0.000000 0.000000 4.762122 4.071093 17.759590 1.327348 7.912348 -69.124097 -24.442301 3.642220 -14.260000 -27.117100 4.587670 31.093700 0.000000 -44.911900 0.000000 22.029200 5.998160 18.289700 28.302200 -0.184732 -6.219150 21.044100 12.934200 -14.475300 -180.000000 72.695999 -180.000000 -40.879200 13.049300 33.899601 11.814560 2.591014 3.434806 0.000000 0.000000 28.660500 -13.800250 12.876547 11.076525 0.000000 0.000000 -15.710728 8.650787 7.668139 0.878764 0.000000 0.000000 23.672199 14.368333 -24.020699 1.701927 0.000000 0.000000 -11.771190 
-15.719109 9.219232 46.561821 -179.511843 -4.478442 171.849403 5.888366 -0.751792 -12.566299 -8.631202 -5.187637 33.797853 0.000000 0.000000 0.000000 4.797076 4.518739 17.411545 1.181412 8.483954 -68.997071 -24.282600 3.647460 -14.210300 -27.738001 4.701510 31.540300 0.000000 -43.476200 0.000000 20.694401 6.491760 16.894400 28.761200 0.285044 -6.010730 22.318501 13.678900 -16.124599 180.000000 72.986000 180.000000 -45.181198 14.615800 32.570702 11.620027 3.319000 2.648205 0.000000 0.000000 29.029100 -12.613613 13.870317 11.255015 0.000000 0.000000 -15.481473 8.752042 8.174961 1.182720 0.000000 0.000000 22.324600 14.169827 -24.687518 2.216806 0.000000 0.000000 -11.594990 
-15.705821 9.239937 46.569090 -179.560145 -4.564900 172.151442 6.089928 -0.473010 -12.640238 -8.775499 -5.035948 34.004377 0.000000 0.000000 0.000000 4.788649 4.790594 16.916595 1.190061 8.808625 -68.867348 -24.270399 3.735650 -14.058100 -28.397699 4.622730 31.936300 0.000000 -42.026901 0.000000 19.072599 6.915690 15.884000 29.101200 0.617190 -5.722560 23.260599 14.687200 -17.525900 -180.000000 73.175003 -180.000000 -49.262402 15.735900 31.195700 11.360588 4.151568 2.015721 0.000000 0.000000 29.235399 -11.151246 14.887085 11.509107 0.000000 0.000000 -15.898283 8.830205 8.798985 1.603941 0.000000 0.000000 20.841299 13.937397 -25.353838 2.744857 0.000000 0.000000 -11.327480 
-15.695950 9.260166 46.574510 -179.600435 -4.675235 172.458485 6.285646 -0.219294 -12.706595 -8.883451 -4.940541 33.964575 0.000000 0.000000 0.000000 4.858695 4.820610 16.766346 1.246693 8.958755 -68.798717 -24.296200 3.724870 -14.045400 -28.958300 4.945300 32.440201 0.000000 -40.752399 0.000000 17.211599 7.366790 16.016701 29.312599 1.114710 -5.440100 24.060301 15.459100 -18.278299 180.000000 73.396004 180.000000 -53.466499 17.501699 32.198101 11.063904 4.900537 1.403321 0.000000 0.000000 29.380100 -9.521296 15.823028 11.724472 0.000000 0.000000 -16.912830 8.864696 9.296546 2.064609 0.000000 0.000000 19.291800 13.729858 -25.897404 3.314019 0.000000 0.000000 -11.130320 
-15.686911 9.277023 46.583107 -179.560841 -4.941239 172.921489 6.532735 0.071716 -12.777810 -8.954997 -4.842939 33.824051 0.000000 0.000000 0.000000 5.218657 4.375124 16.517098 1.235007 9.151705 -68.975242 -24.238600 3.764170 -14.363800 -29.573299 5.276690 33.282501 0.000000 -39.556900 0.000000 15.544000 7.774740 16.003599 29.483900 1.006170 -5.533820 24.890499 16.277000 -18.065201 -180.000000 73.303001 -180.000000 -55.951900 18.588699 31.353100 10.796663 5.357290 0.532978 0.000000 0.000000 29.538900 -8.652290 16.218163 11.569212 0.000000 0.000000 -18.195280 8.897181 9.580473 2.320613 0.000000 0.000000 17.786301 13.536138 -26.328810 3.890739 0.000000 0.000000 -10.969680 
